# xmcd
#
# Track frame offsets:
# 150
# 14575
# 26563
# 43512
# 60513
# 70849
# 84922
# 96675
# 109976
# 124892
# 138067
# 153946
# 167913
# 183372
#
# Disc length: 2597 seconds
#
#
# Revision: 0
# Processed by: cddbd v1.5.1PL2 Copyright (c) Steve Scherf et al.
# Submitted via: FreeRIP 2.945 
#
DISCID=b90a230e
DTITLE=Rodrigo and Rogério - O show vai começar
DYEAR=2006
DGENRE=Sertanejo
TTITLE0=O show vai começar
TTITLE1=Namorá nóis namora
TTITLE2=Ando falando sozinho
TTITLE3=Que que tem, que que tem
TTITLE4=24 horas pensando nela
TTITLE5=Por amor
TTITLE6=Nóis vai meter no bailão
TTITLE7=24 horas do seu lado
TTITLE8=Hoje tem festa na cidade
TTITLE9=Conheço e como
TTITLE10=Um minuto
TTITLE11=Sobrou pra mim
TTITLE12=Sua canção
TTITLE13=Só caminha
EXTD=
EXTT0=
EXTT1=
EXTT2=
EXTT3=
EXTT4=
EXTT5=
EXTT6=
EXTT7=
EXTT8=
EXTT9=
EXTT10=
EXTT11=
EXTT12=
EXTT13=
PLAYORDER=
